<?xml version="1.0" standalone="no"?>
<!DOCTYPE svg PUBLIC "-//W3C//DTD SVG 20010904//EN"
 "http://www.w3.org/TR/2001/REC-SVG-20010904/DTD/svg10.dtd">
<svg version="1.0" xmlns="http://www.w3.org/2000/svg"
 width="200.000000pt" height="200.000000pt" viewBox="0 0 200.000000 200.000000"
 preserveAspectRatio="xMidYMid meet">
<metadata>
Created by potrace 1.11, written by Peter Selinger 2001-2013
</metadata>
<g transform="translate(0.000000,200.000000) scale(0.100000,-0.100000)"
fill="#000000" stroke="none">
<path d="M838 1964 c-299 -53 -579 -284 -689 -567 -50 -131 -67 -239 -64 -407
5 -251 63 -436 197 -618 124 -170 276 -272 488 -328 103 -28 340 -25 450 4
329 89 597 371 669 702 38 177 33 407 -14 570 -90 315 -371 577 -694 645 -82
17 -243 17 -343 -1z m272 -98 c148 -27 281 -127 354 -265 66 -126 83 -182 122
-401 10 -57 11 -346 2 -408 -4 -31 -11 -73 -13 -92 -30 -206 -135 -392 -273
-486 -152 -104 -379 -119 -549 -37 -163 79 -290 302 -337 593 -14 86 -15 422
-2 485 3 17 13 64 22 105 53 249 202 435 394 493 30 9 66 18 80 20 35 4 158 0
200 -7z"/>
<path d="M669 1331 c-1 -3 -2 -153 -3 -334 l-1 -327 28 0 c23 0 27 4 27 28 0
85 48 155 120 176 58 17 248 17 313 0 79 -21 108 -58 121 -159 3 -22 5 -41 6
-42 0 -2 11 -3 25 -3 l25 0 -2 332 c-3 306 -4 331 -20 334 -21 3 -28 -6 -34
-44 -17 -103 -35 -132 -96 -157 -54 -22 -249 -28 -326 -10 -82 19 -109 50
-127 150 -9 51 -14 60 -33 61 -12 1 -23 -1 -23 -5z"/>
</g>
</svg>
